<svg xmlns="http://www.w3.org/2000/svg" viewBox="0 0 100 100">
  <rect width="100" height="100" rx="22" fill="#191d23"/>
  <g fill="#c6a659">
    <path d="M50 9 C 44.5 21, 43 33, 50 47 C 57 33, 55.5 21, 50 9 Z" transform="rotate(0 50 50)"/>
    <path d="M50 9 C 44.5 21, 43 33, 50 47 C 57 33, 55.5 21, 50 9 Z" transform="rotate(60 50 50)"/>
    <path d="M50 9 C 44.5 21, 43 33, 50 47 C 57 33, 55.5 21, 50 9 Z" transform="rotate(120 50 50)"/>
    <path d="M50 9 C 44.5 21, 43 33, 50 47 C 57 33, 55.5 21, 50 9 Z" transform="rotate(180 50 50)"/>
    <path d="M50 9 C 44.5 21, 43 33, 50 47 C 57 33, 55.5 21, 50 9 Z" transform="rotate(240 50 50)"/>
    <path d="M50 9 C 44.5 21, 43 33, 50 47 C 57 33, 55.5 21, 50 9 Z" transform="rotate(300 50 50)"/>
  </g>
</svg>
